# xmcd
#
# Track frame offsets: 
#        150
#        13967
#        28350
#        43527
#        56237
#        71330
#        92175
#        109270
#        121087
#        138377
#
# Disc length: 2060 seconds
#
# Revision: 8
# Processed by: cddbd v1.5.2PL0 Copyright (c) Steve Scherf et al.
# Submitted via: ExactAudioCopy v0.99pb4
#
DISCID=8f080a0a
DTITLE=Highwaymen - Highwayman
DYEAR=1985
DGENRE=Country
TTITLE0=Highwayman
TTITLE1=The Last Cowboy Song
TTITLE2=Jim, I Wore a Tie Today
TTITLE3=Big River
TTITLE4=Committed to Parkview
TTITLE5=Desperados Waiting for a Train
TTITLE6=Deportee (Plane Wreck At Los Gatos)
TTITLE7=Welfare Line
TTITLE8=Against the Wind
TTITLE9=The Twentieth Century Is Almost Over
EXTD=The Highwaymen: Johnny Cash, Waylon Jennings, Kris Kristofferson,
EXTD=Willie Nelson
EXTT0=Waylon, Willie, Cash, Kris
EXTT1=Waylon, Willie, Cash, Kris
EXTT2=Cash, Willie
EXTT3=Waylon, Willie, Cash, Kris
EXTT4=Cash, Willie
EXTT5=Waylon, Willie, Cash, Kris
EXTT6=Cash, Willie, Johnny Rodriguez
EXTT7=Waylon, Willie, Cash, Kris
EXTT8=Cash, Willie, Waylon
EXTT9=Cash, Willie
PLAYORDER=
